<svg fill="#10ACE2" height="200px" width="200px" version="1.1" id="Capa_1" xmlns="http://www.w3.org/2000/svg" xmlns:xlink="http://www.w3.org/1999/xlink" viewBox="0 0 297.204 297.204" xml:space="preserve">
	<g id="SVGRepo_bgCarrier" stroke-width="0">
	</g>
	<g id="SVGRepo_tracerCarrier" stroke-linecap="round" stroke-linejoin="round">
	</g>
	<g id="SVGRepo_iconCarrier">
		<g>
			<path d="M170.943,253.585h-6.342v-24.093c0-3.529-2.861-6.39-6.39-6.39h-19.698c-3.529,0-6.39,2.861-6.39,6.39l0,24.093h-6.342 c-2.439,0-4.665,1.388-5.738,3.578c-1.073,2.19-0.806,4.799,0.688,6.727l22.58,29.125c1.21,1.561,3.074,2.475,5.05,2.475 c1.975,0,3.84-0.914,5.05-2.475l22.58-29.125c1.494-1.927,1.761-4.537,0.688-6.727 C175.608,254.974,173.382,253.585,170.943,253.585z">
			</path>
			<path d="M288.657,3.179c-7.479-3.568-16.431-0.395-19.996,7.082c-7.79,16.333-17.398,31.587-28.672,45.568 c-15.044,0.021-34.878,8.244-56.304,17.506c-0.968,0.427-1.656,1.323-1.787,2.327c-0.13,1.002,0.328,1.94,1.195,2.407 c8.274,4.455,16.879,8.523,25.784,12.172c-14.22-0.177-27.906-1.772-40.841-4.601c-5.065-1.098-10.407-0.471-15.198,1.741 c-3.068,1.419-6.176,2.861-9.323,4.32c-19.578,9.15-43.658,24.689-70.28,35.502c-26.022,11.279-54.585,17.831-69.262,19.784 c-2.011,0.313-3.504,1.421-3.882,2.938c-0.378,1.514,0.435,3.208,2.158,4.397c7.709,5.33,20.808,13.525,38.17,20.648 c5.561,2.291,12.108,3.068,18.279,2.137c20.104-3.011,39.248-8.306,57.145-15.484c-10.54,7.748-22.025,14.851-34.405,21.114 c-1.176,0.595-1.81,1.561-1.62,2.507c0.189,0.945,1.175,1.704,2.549,1.949c33.599,6.364,72.804,2.881,100.609-10.35 c35.865-16.241,60.898-43.397,72.451-66.467c7.057-13.896,9.348-26.346,7.927-35.731c12.734-15.794,23.586-33.023,32.384-51.47 C299.306,15.697,296.135,6.745,288.657,3.179z">
			</path>
		</g>
	</g>
</svg>
